# xmcd
#
# Track frame offsets:
#	150
#	13116
#	25975
#	41424
#	53195
#	68258
#	88583
#	101633
#	112763
#	124238
#	132851
#	142187
#	156032
#	170774
#	188301
#	200349
#	218389
#	232013
#
# Disc length: 3271 seconds
#
# Revision: 1
# Processed by: cddbd v1.5.1PL0 Copyright (c) Steve Scherf et al.
# Submitted via: audiograbber 1.83.01
#
DISCID=eb0cc512
DTITLE=Μητσιάς Μανώλης - Στα 9/8
DYEAR=2004
DGENRE=Λαϊκό
TTITLE0=Μ ένα παράπονο
TTITLE1=Αυτά τα χέρια
TTITLE2=Δεν θα ξαναγαπήσω
TTITLE3=Γκρεμός
TTITLE4=Το τραγούδι της ξενιτιάς
TTITLE5=Απόκληρος
TTITLE6=Χάρε σαν έλθεις
TTITLE7=Ο τρελός
TTITLE8=Στην Ελευσίνα μια φορά
TTITLE9=Σου χω έτοιμη συγγνώμη
TTITLE10=Πάρε τον ηλεκτρικό
TTITLE11=Λιακάδα στο χιονιά
TTITLE12=Ο αλήτης
TTITLE13=Μόνο μια νύχτα
TTITLE14=Βαρύς καιρός
TTITLE15=Αξία έχει ν αγαπάς
TTITLE16=Τι ωραίο ν αγαπάς
TTITLE17=Εξόριστος στον τόπο μου
EXTD=
EXTT0=
EXTT1=
EXTT2=
EXTT3=
EXTT4=
EXTT5=
EXTT6=
EXTT7=
EXTT8=
EXTT9=
EXTT10=
EXTT11=
EXTT12=
EXTT13=
EXTT14=
EXTT15=
EXTT16=
EXTT17=
PLAYORDER=
